<?xml version="1.0" encoding="iso-8859-1"?>
<!-- Uploaded to: SVG Repo, www.svgrepo.com, Generator: SVG Repo Mixer Tools -->
<svg fill="#000000" height="800px" width="800px" version="1.1" id="Layer_1" xmlns="http://www.w3.org/2000/svg" xmlns:xlink="http://www.w3.org/1999/xlink" 
	 viewBox="0 0 512 512" xml:space="preserve">
<g>
	<g>
		<path d="M511.988,364.352c-0.005-0.351-0.033-0.7-0.054-1.05c-0.026-0.476-0.051-0.95-0.105-1.418
			c-0.011-0.088-0.009-0.175-0.02-0.264L479.69,113.377c-1.502-11.601-11.382-20.286-23.08-20.286h-8.847V23.273
			C447.763,10.42,437.343,0,424.49,0H302.545c-12.853,0-23.273,10.42-23.273,23.273v69.818h-46.545V23.273
			C232.727,10.42,222.307,0,209.455,0H87.51C74.657,0,64.237,10.42,64.237,23.273v69.818h-8.847
			c-11.698,0-21.578,8.685-23.08,20.286L0.192,361.619c-0.011,0.088-0.009,0.175-0.02,0.264c-0.054,0.469-0.081,0.942-0.106,1.418
			c-0.022,0.351-0.05,0.7-0.054,1.05c0,0.085-0.012,0.168-0.012,0.254v124.121C0,501.58,10.42,512,23.273,512h186.182
			c12.853,0,23.273-10.42,23.273-23.273V364.606v-54.303h46.545v54.303v124.121c0,12.853,10.42,23.273,23.273,23.273h186.182
			C501.58,512,512,501.58,512,488.727V364.606C512,364.519,511.988,364.437,511.988,364.352z M186.182,465.455H46.545v-77.576
			h139.636V465.455z M186.182,341.333H49.749l26.098-201.697h11.664h98.67V341.333z M186.182,93.091h-75.399V46.545h75.399V93.091z
			 M279.273,263.758h-46.545V139.636h46.545V263.758z M325.818,46.545h75.399v46.545h-75.399V46.545z M325.818,139.636h98.672
			h11.664l26.096,201.697H325.818V139.636z M465.455,465.455H325.818v-77.576h139.636V465.455z"/>
	</g>
</g>
</svg>