<?xml version="1.0" encoding="utf-8"?>
<!-- Generator: Adobe Illustrator 24.2.0, SVG Export Plug-In . SVG Version: 6.00 Build 0)  -->
<svg version="1.1" id="Layer_1" xmlns="http://www.w3.org/2000/svg" xmlns:xlink="http://www.w3.org/1999/xlink" x="0px" y="0px"
	 viewBox="0 0 512 512" enable-background="new 0 0 512 512" xml:space="preserve">
<g id="Layer_2_1_">
	<g id="Layer_1-2">
		<g opacity="0.9">
			<path fill-rule="evenodd" clip-rule="evenodd" fill="#BDAE82" d="M152.953,201.197l-31.292,31.18l108.371,107.865l91.517-91.095
				c0,0,24.663-23.961,7.219-64.607l-52.978-52.865l-28.904,28.792l40.927,40.73c5.997,7.24,4.99,17.971-2.25,23.968
				c-0.008,0.007-0.017,0.014-0.025,0.021l-53.118,52.725L152.953,201.197z"/>
			<path fill-rule="evenodd" clip-rule="evenodd" fill="#15A99F" d="M358.992,170.045l31.152-31.18L282.278,31l-91.096,91.096
				c0,0-24.579,23.961-7.191,64.607l52.725,52.865l28.764-28.792l-40.758-40.73c-5.864-7.279-4.788-17.92,2.416-23.876
				l52.781-52.837L358.992,170.045z"/>
			<path fill="#8C8C8C" d="M271.717,409.034c-2.703-2.508-6.321-3.789-10-3.539h-50.281v-9.551c0.011-0.302-0.101-0.596-0.309-0.815
				c-0.215-0.174-0.482-0.273-0.758-0.281h-9.101c-0.521-0.084-1.011,0.269-1.096,0.79c-0.016,0.101-0.016,0.204,0,0.305v41.461
				h-14.635l0.197-62.753c0-0.559-0.453-1.011-1.011-1.011c0,0,0,0,0,0h-9.129c-0.492-0.067-0.945,0.278-1.011,0.77
				c-0.011,0.08-0.011,0.161,0,0.241v71.433c-0.007,2.733-0.261,5.459-0.758,8.146c-0.49,2.702-1.512,5.28-3.006,7.584
				c-1.626,2.394-3.842,4.329-6.433,5.618c-3.435,1.632-7.211,2.412-11.011,2.275c-2.971,0.069-5.933-0.359-8.764-1.264
				c-2.234-0.731-4.311-1.875-6.124-3.371c-1.614-1.394-2.948-3.081-3.933-4.972c-0.969-1.924-1.722-3.95-2.247-6.039
				c-0.539-2.136-0.878-4.318-1.011-6.517c0-2.219-0.225-4.382-0.225-6.461v-13.09c0.025-0.304-0.088-0.604-0.309-0.815
				c-0.215-0.174-0.482-0.273-0.758-0.281h-9.045c-0.646,0-0.955,0.365-0.955,1.095c0,1.517,0,2.809,0,4.017s0,2.163,0,3.062
				c0,0.899,0,1.657,0,2.303s0,1.264,0,1.826v2.022c-0.027,4.963,0.577,9.909,1.798,14.719c1.092,4.449,2.997,8.659,5.618,12.416
				c2.604,3.627,5.981,6.63,9.888,8.792c4.468,2.389,9.43,3.707,14.494,3.848c2.727-0.065,5.443-0.365,8.118-0.899
				c2.627-0.553,5.188-1.381,7.64-2.472c2.458-1.106,4.769-2.512,6.882-4.185c2.178-1.728,4.073-3.784,5.618-6.095
				c1.723-2.605,3.066-5.443,3.989-8.427c1.099-3.442,1.75-7.01,1.938-10.618h75.843c3.685,0.256,7.309-1.037,10-3.567
				c2.628-3.255,3.879-7.408,3.483-11.573v-12.725C275.623,416.316,274.335,412.232,271.717,409.034z M264.076,437.405h-52.64
				v-20.843h52.64V437.405z"/>
			<path fill="#8C8C8C" d="M296.099,373.697h-9.045c-0.73,0-1.067,0.337-1.067,1.011v73.258c-0.004,0.262,0.097,0.515,0.281,0.702
				c0.2,0.22,0.491,0.334,0.787,0.309h9.045c0.26,0.007,0.509-0.107,0.674-0.309c0.184-0.187,0.285-0.44,0.281-0.702v-73.315
				c0.011-0.272-0.09-0.536-0.281-0.73C296.587,373.76,296.344,373.679,296.099,373.697z"/>
			<path fill="#8C8C8C" d="M363.599,378.388c0.571,0.602,1.259,1.079,2.022,1.405c0.77,0.339,1.603,0.512,2.444,0.506
				c0.859,0.003,1.71-0.169,2.5-0.506c0.764-0.339,1.459-0.815,2.051-1.405c0.587-0.588,1.054-1.285,1.376-2.051
				c0.337-0.79,0.509-1.641,0.506-2.5c0.009-0.86-0.163-1.711-0.506-2.5c-0.321-0.775-0.789-1.48-1.376-2.079
				c-0.593-0.581-1.288-1.048-2.051-1.376c-0.79-0.337-1.641-0.509-2.5-0.506c-0.841-0.006-1.674,0.166-2.444,0.506
				c-0.761,0.315-1.45,0.784-2.022,1.376c-0.588,0.598-1.055,1.304-1.376,2.079c-0.342,0.789-0.514,1.64-0.506,2.5
				c-0.003,0.859,0.169,1.71,0.506,2.5C362.544,377.103,363.012,377.799,363.599,378.388z"/>
			<path fill="#8C8C8C" d="M391.492,371.337c-0.332-0.776-0.808-1.481-1.404-2.079c-0.588-0.587-1.285-1.054-2.051-1.376
				c-0.79-0.337-1.641-0.509-2.5-0.506c-0.841,0-1.672,0.172-2.444,0.506c-0.761,0.315-1.45,0.784-2.022,1.376
				c-0.579,0.606-1.045,1.31-1.376,2.079c-0.342,0.789-0.514,1.64-0.506,2.5c-0.003,0.859,0.169,1.71,0.506,2.5
				c0.332,0.761,0.798,1.455,1.376,2.051c0.571,0.601,1.259,1.079,2.022,1.404c0.772,0.334,1.603,0.506,2.444,0.506
				c0.859,0.003,1.71-0.169,2.5-0.506c1.542-0.681,2.774-1.913,3.455-3.455c0.337-0.79,0.509-1.641,0.506-2.5
				C392.006,372.978,391.834,372.126,391.492,371.337z"/>
			<path fill="#8C8C8C" d="M390.144,394.989h-9.101c-0.283-0.009-0.554,0.116-0.73,0.337c-0.18,0.201-0.28,0.461-0.281,0.73v41.348
				h-28.09v-27.416c0.385-4.159-0.83-8.308-3.399-11.601c-2.682-2.505-6.282-3.787-9.944-3.539h-16.011
				c-3.671-0.252-7.281,1.03-9.972,3.539c-2.601,3.278-3.839,7.434-3.455,11.601v23.371c-0.388,4.159,0.85,8.307,3.455,11.573
				c2.68,2.529,6.296,3.822,9.972,3.567h19.663c-0.479,3.843-1.61,7.576-3.343,11.039c-1.381,2.513-3.299,4.69-5.618,6.376
				c-1.951,1.403-4.184,2.362-6.545,2.809c-2.349,0.474-4.739,0.709-7.135,0.702c-1.292,0-2.809,0-4.073,0s-2.64,0-3.652,0
				c-0.314-0.016-0.617,0.12-0.815,0.365c-0.21,0.207-0.322,0.492-0.309,0.786v8.989c0.019,0.297,0.204,0.558,0.478,0.674
				c0.31,0.172,0.64,0.304,0.983,0.393l6.433,0.337c4.332,0.046,8.639-0.667,12.725-2.107c3.764-1.334,7.208-3.439,10.112-6.18
				c2.993-2.875,5.405-6.299,7.107-10.084c1.946-4.46,3.169-9.201,3.624-14.045h25.281c3.685,0.256,7.309-1.037,10-3.567
				c2.628-3.255,3.879-7.408,3.483-11.573v-37.247c0.001-0.275-0.111-0.539-0.309-0.73
				C390.565,395.225,390.373,395.063,390.144,394.989z M340.958,437.405h-20.73v-31.461h20.73V437.405z"/>
		</g>
	</g>
</g>
</svg>
